# xmcd
#
# Track frame offsets: 
#        150
#        19972
#        37047
#        56457
#        72435
#        87436
#        100105
#        124341
#        140518
#        156080
#        173849
#        187800
#        202830
#        214719
#        226796
#        240417
#        252661
#        268026
#        288574
#        304440
#        321699
#        332550
#
# Disc length: 4574 seconds
#
# Revision: 0
# Processed by: cddbd v1.5.2PL0 Copyright (c) Steve Scherf et al.
# Submitted via: ExactAudioCopy v1.3
#
DISCID=4911dc16
DTITLE=Various Artist - Random Acts Of Country
DYEAR=2012
DGENRE=Country
TTITLE0=Brad Paisley - Water
TTITLE1=Kellie Pickler - Best Days Of Your Life
TTITLE2=Montgomery Gentry - Daddy Wont Sell The Farm
TTITLE3=Gretchen Wilson - All Jacked Up
TTITLE4=Jo Dee Messina - Bye-Bye
TTITLE5=LeAnn Rimes - Blue
TTITLE6=The Judds - Love Can Build A Bridge
TTITLE7=Adam Harvey - Flowers
TTITLE8=Martina McBride - Independence Day
TTITLE9=O'Shea - When The Girls Get Together
TTITLE10=Beccy Cole - Here You Come Again
TTITLE11=Alabama - Love In The First Degree
TTITLE12=Roseanne Cash - I Dont Want To Spoil The Party
TTITLE13=Bob Dylan - Ill Be Your Baby Tonight
TTITLE14=John Denver - Annies Song
TTITLE15=Merle Haggard - Workin Man Blues
TTITLE16=Dolly Parton - Tennesse Homesick Blues
TTITLE17=Patty Loveless - Lonely Too Long
TTITLE18=Ronnie Milsap - He Got You
TTITLE19=Ray Price - For The Good Times
TTITLE20=Tanya Tucker - Would You Lay With Me (In A Field Of Stone)
TTITLE21=Ricky Van Shelton - From A Jack To A King
EXTD=
EXTT0=
EXTT1=
EXTT2=
EXTT3=
EXTT4=
EXTT5=
EXTT6=
EXTT7=
EXTT8=
EXTT9=
EXTT10=
EXTT11=
EXTT12=
EXTT13=
EXTT14=
EXTT15=
EXTT16=
EXTT17=
EXTT18=
EXTT19=
EXTT20=
EXTT21=
PLAYORDER=
